<?xml version="1.0" standalone="no"?>
<!DOCTYPE svg PUBLIC "-//W3C//DTD SVG 20010904//EN"
 "http://www.w3.org/TR/2001/REC-SVG-20010904/DTD/svg10.dtd">
<svg version="1.0" xmlns="http://www.w3.org/2000/svg"
 width="256.000000pt" height="256.000000pt" viewBox="0 0 256.000000 256.000000"
 preserveAspectRatio="xMidYMid meet">
<metadata>
Created by potrace 1.10, written by Peter Selinger 2001-2011
</metadata>
<g transform="translate(0.000000,256.000000) scale(0.050000,-0.050000)"
fill="#4cbceb" stroke="none">
<path d="M1809 4758 c-966 -119 -1615 -1050 -1389 -1993 291 -1214 1784 -1654
2697 -796 622 584 670 1583 108 2238 -341 398 -899 615 -1416 551z m351 -146
c72 -6 191 -33 265 -60 74 -28 135 -44 135 -36 0 8 7 5 15 -6 8 -11 67 -46
130 -77 63 -32 110 -65 105 -73 -5 -9 6 -14 25 -13 19 2 34 -10 35 -27 0 -16
11 -31 25 -32 14 -2 34 -4 45 -5 11 -2 20 -16 20 -33 0 -17 18 -30 40 -30 22
0 38 -7 35 -15 -3 -9 15 -38 40 -64 25 -27 45 -60 45 -75 0 -14 9 -26 20 -26
10 0 42 -43 70 -95 28 -52 68 -122 88 -155 20 -33 33 -67 28 -76 -5 -9 1 -28
14 -44 13 -16 18 -37 12 -47 -6 -10 1 -29 17 -42 17 -14 26 -48 21 -82 -4 -32
0 -63 8 -68 17 -10 23 -68 29 -266 1 -69 9 -125 17 -125 30 0 -10 -60 -41 -62
-28 -2 -28 -4 2 -12 38 -10 46 -37 16 -55 -10 -7 -15 -29 -11 -50 4 -21 -6
-49 -21 -62 -16 -13 -23 -32 -17 -42 6 -10 -7 -54 -30 -98 -23 -43 -36 -79
-29 -79 6 0 -3 -22 -21 -49 -17 -27 -32 -64 -32 -81 0 -18 -8 -27 -18 -21 -23
14 -46 -46 -29 -76 7 -13 6 -17 -2 -9 -18 16 -58 -19 -76 -69 -8 -19 -24 -35
-36 -35 -12 0 -16 -8 -10 -18 6 -9 -9 -23 -33 -29 -24 -6 -38 -17 -31 -25 16
-15 -93 -128 -123 -128 -12 0 -22 -7 -22 -15 0 -16 -35 -37 -160 -96 -38 -18
-86 -47 -105 -64 -19 -17 -35 -25 -35 -18 0 8 -43 -8 -96 -35 -53 -27 -136
-53 -185 -59 -49 -6 -140 -16 -201 -24 -139 -17 -438 20 -558 70 -49 21 -119
48 -155 62 -35 13 -60 32 -54 41 6 10 -12 18 -41 18 -28 0 -74 22 -101 49 -27
27 -49 43 -49 36 0 -7 -13 5 -29 26 -17 22 -30 31 -30 22 -1 -24 -161 147
-161 171 0 10 -10 12 -23 4 -13 -8 -18 -5 -11 6 7 12 -4 42 -26 68 -22 27 -47
58 -57 69 -10 12 -33 55 -53 95 -19 41 -43 74 -53 74 -11 0 -14 9 -7 20 7 12
-5 50 -28 86 -24 40 -36 83 -29 110 7 26 3 44 -11 44 -14 0 -19 21 -14 51 6
29 -1 55 -14 60 -54 21 -47 516 9 582 16 20 16 27 -2 27 -16 0 -13 14 7 44 18
25 26 63 19 90 -7 28 -2 46 12 46 13 0 18 8 12 18 -6 10 4 23 21 30 18 7 27
25 21 42 -7 17 -3 30 8 30 10 0 17 11 14 24 -3 13 6 25 18 25 13 1 31 9 40 19
10 11 7 12 -8 4 -14 -8 -25 -5 -25 7 0 11 10 21 23 21 13 0 18 6 11 12 -11 12
66 132 115 178 12 11 46 50 76 87 30 36 55 60 55 52 0 -8 23 9 50 39 28 31 60
48 73 40 14 -8 18 -5 10 7 -16 26 38 73 66 56 12 -8 21 -4 21 7 0 12 27 35 60
52 33 17 60 25 60 18 0 -7 12 -3 27 9 15 13 33 17 40 9 7 -7 13 -3 13 8 0 22
118 79 145 71 8 -3 15 6 15 19 0 18 6 18 23 1 17 -17 34 -17 62 -2 22 11 56
16 77 11 21 -6 38 -1 38 9 0 11 18 14 40 7 22 -7 40 -5 40 5 0 10 34 16 75 13
41 -4 134 -11 205 -16z"/>
<path d="M1760 4230 c-27 -16 -68 -29 -90 -29 -48 -1 -353 -170 -422 -235 -28
-25 -55 -46 -60 -46 -6 0 -24 -13 -41 -30 -21 -21 -22 -30 -5 -30 13 0 3 -18
-22 -40 -25 -22 -54 -40 -64 -40 -10 0 -13 -9 -5 -21 7 -11 2 -34 -12 -50 -13
-16 -16 -29 -7 -29 9 0 -3 -14 -27 -31 -25 -17 -39 -43 -32 -60 6 -16 2 -29
-10 -29 -21 0 -55 -77 -46 -107 2 -10 -5 -29 -17 -43 -11 -14 -15 -40 -7 -59
7 -21 1 -42 -15 -53 -23 -14 -23 -17 -1 -18 20 0 22 -7 8 -25 -22 -27 -18
-307 5 -405 8 -33 15 -71 16 -84 0 -13 13 -29 29 -35 15 -6 22 -20 15 -31 -7
-11 -2 -20 10 -20 13 0 19 -11 15 -25 -5 -14 10 -43 33 -65 23 -22 45 -57 48
-76 4 -20 42 -72 85 -115 44 -44 68 -79 54 -79 -14 -1 6 -16 43 -35 38 -18 90
-52 115 -76 25 -23 84 -58 131 -78 47 -19 103 -44 124 -55 167 -88 852 -50
852 47 0 9 11 17 25 17 56 0 180 45 159 57 -13 8 8 34 52 63 81 55 184 155
184 180 0 9 14 21 31 28 17 6 27 20 20 30 -6 9 3 29 19 42 17 14 30 37 30 52
0 16 7 28 15 28 27 0 98 223 113 354 3 24 17 58 31 75 14 17 18 31 8 31 -9 0
-18 64 -20 142 -2 78 -12 151 -24 163 -11 11 -15 32 -9 47 6 16 0 28 -12 28
-12 0 -22 17 -22 39 0 21 -10 45 -21 52 -12 7 -17 25 -11 40 6 15 2 33 -9 40
-10 6 -19 29 -19 50 0 22 -11 37 -25 34 -13 -3 -27 16 -31 42 -4 26 -25 52
-46 58 -21 5 -38 19 -38 30 0 28 -192 215 -220 215 -13 0 -35 12 -49 27 -24
23 -169 79 -392 150 -102 33 -378 28 -439 -7z m540 -183 c667 -220 868 -1085
366 -1579 -557 -548 -1501 -231 -1612 541 -100 694 577 1258 1246 1038z"/>
<path d="M3340 2040 c-273 -128 -390 -420 -270 -677 59 -127 834 -911 964
-975 447 -222 916 309 649 736 -61 99 -843 866 -923 907 -109 55 -311 59 -420
9z m340 -147 c72 -33 225 -188 211 -212 -7 -11 -1 -16 13 -10 15 5 57 -27 96
-75 39 -47 104 -118 145 -158 41 -40 75 -83 75 -96 0 -12 9 -22 20 -22 54 0
278 -277 279 -346 1 -20 9 -31 20 -25 10 6 24 3 31 -9 7 -11 -4 -20 -24 -20
-30 -1 -31 -4 -6 -20 20 -13 22 -19 5 -20 -14 0 -25 -10 -25 -21 0 -12 9 -16
20 -9 31 19 24 -77 -11 -147 -18 -35 -45 -63 -61 -63 -16 0 -34 -13 -41 -30
-6 -16 -19 -25 -29 -19 -10 6 -18 3 -18 -8 0 -11 -54 -22 -120 -26 -66 -4
-120 0 -120 9 0 8 -16 21 -35 29 -19 7 -45 22 -58 34 -12 11 -45 37 -73 58
-28 20 -75 71 -105 115 -30 43 -67 78 -82 78 -15 0 -27 9 -27 20 0 11 -13 20
-28 20 -27 0 -62 54 -55 85 2 8 -11 15 -28 15 -19 0 -26 10 -17 25 8 14 7 19
-1 11 -22 -19 -90 31 -118 85 -13 25 -32 45 -43 45 -27 1 -70 46 -70 74 0 12
-8 18 -17 12 -10 -6 -34 7 -53 28 -20 22 -29 40 -19 40 9 0 -9 27 -40 59 -44
46 -58 81 -62 161 -3 57 -11 108 -17 115 -7 6 3 28 21 48 18 21 27 37 19 37
-15 0 14 38 77 102 75 75 247 89 371 31z"/>
</g>
</svg>
