<?xml version="1.0" standalone="no"?>
<!DOCTYPE svg PUBLIC "-//W3C//DTD SVG 20010904//EN"
 "http://www.w3.org/TR/2001/REC-SVG-20010904/DTD/svg10.dtd">
<svg version="1.0" xmlns="http://www.w3.org/2000/svg"
 width="300.000000pt" height="300.000000pt" viewBox="0 0 300.000000 300.000000"
 preserveAspectRatio="xMidYMid meet">
<metadata>
Created by potrace 1.10, written by Peter Selinger 2001-2011
</metadata>
<g transform="translate(0.000000,300.000000) scale(0.100000,-0.100000)"
fill="#4cbceb" stroke="none">
<path d="M1460 2698 l-50 -52 -42 23 c-24 12 -55 30 -70 39 -26 16 -28 16 -58
-13 -16 -16 -30 -34 -30 -41 0 -28 -61 -19 -139 20 -41 21 -62 6 -92 -65 -16
-35 -32 -63 -36 -62 -4 0 -21 3 -38 6 -16 3 -47 8 -67 12 -34 6 -38 5 -52 -24
-9 -16 -16 -43 -17 -58 0 -15 -6 -46 -13 -68 l-12 -40 -62 -1 c-34 -1 -69 -7
-77 -14 -8 -6 -15 -34 -17 -63 l-3 -51 -68 -16 c-92 -21 -92 -21 -67 -143 6
-32 10 -63 8 -69 -2 -6 -31 -21 -63 -34 -77 -28 -85 -41 -62 -101 34 -88 34
-87 -26 -127 -30 -20 -58 -44 -61 -53 -4 -10 9 -40 34 -78 l41 -63 -51 -50
c-27 -27 -50 -57 -50 -66 0 -10 23 -41 50 -70 l51 -54 -41 -59 c-26 -37 -39
-65 -35 -75 4 -10 29 -31 56 -49 27 -17 49 -35 49 -40 0 -4 -9 -31 -20 -58
-23 -60 -19 -67 65 -101 l57 -23 -8 -56 c-14 -103 -13 -105 31 -118 22 -6 57
-14 77 -18 l38 -6 0 -93 c0 -64 4 -97 13 -104 7 -6 46 -12 87 -14 l75 -3 7
-44 c11 -66 22 -73 90 -60 31 6 63 9 70 6 7 -3 26 -39 43 -81 17 -43 37 -78
46 -81 9 -3 47 6 83 19 l66 25 28 -42 c15 -23 36 -52 47 -64 l20 -23 55 35
c30 19 61 37 67 41 7 3 37 -16 69 -45 30 -28 59 -51 64 -51 5 0 34 23 65 51
l56 52 29 -22 c16 -11 32 -21 35 -21 4 0 13 -7 21 -15 34 -33 62 -19 110 55
25 38 50 70 57 70 6 0 30 -7 54 -16 62 -24 85 -14 107 45 29 81 31 82 105 66
35 -7 70 -11 78 -8 7 3 20 29 29 59 l15 54 73 0 c48 0 77 5 84 13 6 7 12 53
14 103 l3 89 60 15 c94 24 97 26 85 90 -6 30 -7 57 -3 60 5 4 28 15 53 25 81
34 84 42 46 129 l-25 55 30 26 c17 14 34 25 37 25 11 0 62 46 62 56 0 4 -19
35 -41 67 l-41 58 28 31 c16 17 39 41 52 54 12 13 22 30 22 38 0 8 -22 38 -50
67 -44 46 -48 54 -37 71 23 39 32 53 51 81 23 33 17 42 -66 98 -32 22 -58 42
-58 45 0 2 14 38 31 79 17 41 29 81 25 90 -3 9 -33 28 -67 43 l-61 27 8 55 c8
65 8 99 0 107 -3 4 -37 14 -74 23 l-67 16 -3 40 c-5 85 -4 84 -86 84 l-75 0
-12 58 c-20 99 -29 131 -38 137 -5 3 -40 -1 -77 -8 -38 -7 -76 -11 -84 -10 -8
2 -23 24 -34 49 -10 25 -21 43 -24 40 -5 -6 26 -95 38 -109 3 -4 39 -1 79 8
40 8 78 15 85 15 8 0 19 -36 31 -99 l19 -99 78 3 78 3 0 -63 c0 -71 -8 -65 98
-85 34 -7 62 -15 62 -19 -1 -3 -7 -35 -15 -71 -8 -36 -14 -70 -15 -75 0 -6 34
-23 75 -39 41 -16 75 -30 75 -32 0 -1 -16 -40 -35 -85 -19 -46 -35 -86 -35
-90 0 -3 32 -27 70 -53 39 -25 70 -49 70 -52 0 -3 -18 -32 -40 -65 l-41 -59
-37 37 c-65 66 -64 63 -41 124 25 65 16 60 -16 -9 l-23 -50 114 -113 114 -114
-59 -59 -59 -58 45 -64 c24 -35 42 -68 39 -73 -3 -5 -33 -26 -66 -47 -33 -22
-60 -42 -60 -47 0 -4 14 -37 30 -74 17 -37 27 -70 23 -73 -7 -6 -30 -16 -119
-50 -21 -8 -21 -10 -8 -61 8 -30 14 -59 14 -65 0 -7 -33 -17 -80 -25 l-80 -13
0 -103 0 -103 -84 0 c-93 0 -90 2 -101 -74 -8 -49 -11 -51 -65 -37 -19 5 -51
12 -71 15 l-36 6 -28 -72 c-15 -40 -29 -74 -30 -76 -2 -3 -92 33 -116 47 -12
7 -26 -7 -69 -72 -29 -45 -55 -84 -56 -86 -2 -2 -33 18 -70 44 l-67 46 -58
-57 -59 -58 -59 58 -58 57 -68 -47 c-54 -38 -69 -44 -76 -33 -5 8 -26 39 -45
70 l-36 57 -76 -33 -76 -33 -38 91 c-21 50 -39 92 -41 93 -1 1 -31 -4 -67 -11
-36 -8 -68 -14 -71 -15 -4 0 -12 27 -18 60 l-12 60 -85 0 -84 0 0 103 0 102
-77 13 c-42 6 -78 14 -81 17 -4 4 12 106 24 145 3 11 -17 24 -71 45 -41 17
-75 33 -75 36 0 4 11 32 25 63 l25 57 -64 41 -64 41 48 67 48 67 -59 59 -59
59 106 106 107 107 -23 58 c-13 32 -25 53 -28 46 -2 -6 4 -24 12 -41 24 -46
20 -66 -23 -110 l-40 -41 -44 63 -44 64 60 39 c33 21 64 42 69 45 5 3 -5 38
-22 79 -18 40 -28 76 -23 80 4 4 40 20 79 35 l70 27 -18 81 c-25 118 -27 114
40 127 112 23 102 15 102 85 l0 63 77 -2 76 -1 18 94 c10 51 21 96 24 99 3 3
40 -2 82 -11 42 -9 77 -16 78 -14 1 1 14 35 30 75 15 39 31 72 34 72 4 0 43
-15 88 -34 l82 -35 32 52 c18 29 34 53 35 55 1 2 32 -18 69 -44 l67 -47 59 59
59 58 59 -58 58 -57 67 46 c37 26 68 46 70 44 1 -2 21 -34 45 -71 l42 -66 75
31 c41 17 74 35 74 40 0 5 -8 6 -17 2 -81 -32 -124 -47 -126 -44 -44 64 -91
119 -102 119 -9 0 -38 -16 -65 -35 -27 -19 -56 -35 -63 -35 -7 0 -35 23 -62
50 -27 28 -53 50 -57 50 -4 0 -30 -23 -58 -52z"/>
<path d="M1352 2586 c-19 -23 -23 -24 -49 -11 -15 7 -41 16 -58 19 -23 5 -18
0 20 -18 64 -32 66 -32 100 4 16 17 24 30 19 30 -6 0 -20 -11 -32 -24z"/>
<path d="M1430 2605 c0 -2 20 -18 45 -35 l44 -30 45 32 c25 17 44 34 41 36 -3
3 -23 -8 -45 -23 l-40 -28 -40 27 c-39 26 -50 30 -50 21z"/>
<path d="M1690 2567 l46 -48 54 25 c64 29 59 33 -12 9 -44 -14 -53 -14 -62 -2
-6 8 -25 25 -41 39 -17 13 -10 3 15 -23z"/>
<path d="M1146 2549 c-27 -41 -28 -41 -74 -34 -26 3 -58 9 -72 12 -14 3 -22 2
-18 -2 7 -7 140 -38 142 -33 1 2 15 22 30 46 16 23 27 45 24 47 -3 3 -17 -13
-32 -36z"/>
<path d="M1880 2555 c0 -6 8 -22 17 -35 9 -14 17 -26 18 -27 1 -2 30 4 66 12
l64 15 -62 -5 c-58 -4 -63 -3 -82 23 -11 15 -21 22 -21 17z"/>
<path d="M1438 2503 c7 -3 16 -2 19 1 4 3 -2 6 -13 5 -11 0 -14 -3 -6 -6z"/>
<path d="M915 2435 l-28 -65 -50 0 c-63 0 -58 -7 7 -11 l50 -3 28 68 c15 38
26 71 24 73 -2 2 -16 -26 -31 -62z"/>
<path d="M1252 2485 c-13 -7 -19 -15 -14 -19 5 -3 17 3 27 14 21 23 19 23 -13
5z"/>
<path d="M2091 2448 c12 -29 25 -62 29 -73 7 -18 14 -19 71 -15 l64 5 -60 3
-61 3 -24 60 c-13 33 -27 62 -32 65 -4 3 1 -19 13 -48z"/>
<path d="M1778 2478 c6 -6 18 -8 28 -6 14 3 12 5 -9 10 -19 3 -25 2 -19 -4z"/>
<path d="M1960 2431 c0 -6 4 -13 10 -16 6 -3 7 1 4 9 -7 18 -14 21 -14 7z"/>
<path d="M1045 2394 c-9 -14 -15 -27 -13 -30 2 -2 12 10 22 26 21 37 15 40 -9
4z"/>
<path d="M743 2310 c-7 -36 -14 -41 -73 -57 l-45 -12 55 6 c30 3 58 8 61 12 8
8 20 81 13 81 -2 0 -7 -14 -11 -30z"/>
<path d="M2287 2305 c3 -22 8 -43 12 -46 3 -4 31 -10 61 -13 62 -7 56 1 -10
12 -39 7 -44 11 -56 47 l-13 40 6 -40z"/>
<path d="M846 2294 c-17 -12 -17 -14 -4 -14 9 0 20 5 23 11 11 17 2 18 -19 3z"/>
<path d="M2150 2302 c0 -12 19 -26 26 -19 2 2 -2 10 -11 17 -9 8 -15 8 -15 2z"/>
<path d="M600 2140 l-5 -75 -47 -22 c-27 -13 -48 -25 -48 -28 0 -4 101 33 108
40 2 1 1 38 0 81 l-3 79 -5 -75z"/>
<path d="M2430 2163 c0 -42 12 -37 17 7 1 16 -2 30 -7 30 -6 0 -10 -16 -10
-37z"/>
<path d="M2431 2106 c3 -11 23 -26 53 -38 58 -23 72 -18 19 7 -21 10 -46 25
-57 34 -17 15 -18 15 -15 -3z"/>
<path d="M684 2095 c-18 -14 -18 -14 4 -8 12 3 22 9 22 14 0 12 -3 11 -26 -6z"/>
<path d="M2541 1942 c-14 -81 -16 -79 54 -117 l30 -16 -25 21 c-14 12 -33 28
-43 35 -15 11 -16 18 -6 63 6 28 9 60 7 69 -2 10 -10 -15 -17 -55z"/>
<path d="M487 1940 c3 -25 6 -47 5 -50 0 -22 -3 -30 -13 -30 -13 0 -81 -51
-75 -57 2 -2 27 11 55 29 51 33 51 34 45 73 -10 59 -24 89 -17 35z"/>
<path d="M2435 1930 c3 -5 11 -10 16 -10 6 0 7 5 4 10 -3 6 -11 10 -16 10 -6
0 -7 -4 -4 -10z"/>
<path d="M569 1913 c-13 -16 -12 -17 4 -4 9 7 17 15 17 17 0 8 -8 3 -21 -13z"/>
<path d="M1333 1819 c-6 -6 -37 -12 -70 -14 -94 -4 -157 -16 -170 -33 -17 -21
1 -42 37 -42 27 0 27 -1 29 -62 1 -69 19 -100 44 -79 10 7 16 37 19 81 2 38 6
71 9 74 4 4 51 10 131 15 14 2 19 42 8 56 -15 18 -22 19 -37 4z m31 -18 c7
-10 -22 -37 -30 -28 -9 8 3 37 15 37 5 0 12 -4 15 -9z m-59 -21 c4 -6 -9 -10
-32 -10 -59 0 -65 -9 -71 -94 -2 -42 -8 -76 -12 -76 -15 0 -20 32 -14 83 8 72
9 72 -36 68 -63 -4 -46 15 23 26 85 14 135 15 142 3z"/>
<path d="M1580 1794 c-6 -14 -10 -40 -10 -58 0 -26 -7 -39 -32 -58 -48 -35
-68 -41 -68 -19 0 12 7 17 23 17 18 -1 23 5 25 30 4 36 -18 59 -47 49 -12 -3
-34 -26 -51 -49 -46 -68 -66 -68 -61 0 1 11 -5 27 -14 34 -24 20 -46 -7 -52
-62 -4 -37 -1 -49 20 -73 24 -29 25 -29 64 -13 33 13 43 13 58 2 20 -15 52
-10 98 13 24 12 27 12 27 -2 0 -23 28 -30 49 -11 15 14 20 14 37 1 25 -19 53
-19 75 1 13 12 22 13 38 5 24 -13 78 -14 85 -2 3 5 15 11 26 14 11 3 18 2 15
-2 -5 -9 23 -51 33 -51 22 1 36 22 34 52 -3 44 6 55 53 70 29 9 40 19 40 33 0
15 -8 21 -32 23 -29 3 -33 7 -33 33 0 55 -52 48 -63 -9 -3 -15 -16 -32 -30
-38 -21 -10 -25 -8 -35 18 -6 18 -17 28 -30 28 -22 0 -82 -54 -82 -74 0 -17
-33 -46 -53 -46 -27 0 -28 16 -1 45 14 15 24 34 22 43 -5 23 -36 27 -58 7 -18
-16 -18 -16 -13 4 15 59 -36 101 -57 45z m36 -36 c-4 -29 -9 -64 -12 -78 -5
-24 -5 -24 10 -6 44 55 68 76 77 70 7 -4 -4 -22 -26 -44 l-36 -37 27 -22 c15
-11 30 -21 34 -21 12 0 60 52 84 90 25 40 59 47 64 14 2 -14 -8 -30 -28 -48
-34 -28 -32 -46 3 -46 29 0 101 59 74 60 -27 0 -10 20 18 20 19 0 24 7 30 40
4 22 11 42 15 45 16 10 20 -12 9 -44 -6 -18 -9 -34 -6 -37 2 -3 23 0 46 5 31
7 41 6 38 -2 -2 -7 -24 -16 -49 -20 -42 -8 -47 -12 -53 -43 -3 -19 -3 -44 0
-54 4 -14 2 -20 -9 -20 -14 0 -18 7 -18 30 -1 3 2 21 6 40 l6 34 -32 -31 c-18
-18 -44 -36 -58 -41 -31 -12 -70 2 -70 25 0 14 -5 12 -28 -10 -35 -34 -59 -34
-94 0 -23 22 -28 24 -33 10 -3 -10 -7 -25 -10 -34 -11 -32 -25 1 -16 35 11 37
2 41 -25 11 -46 -51 -124 -62 -124 -18 0 20 -1 20 -31 -5 -36 -31 -64 -33 -79
-7 -15 29 -12 87 5 101 13 11 15 7 13 -34 -2 -78 14 -79 81 -8 32 34 63 62 69
62 13 0 27 -39 17 -48 -4 -4 -11 1 -17 11 -10 18 -10 18 -22 0 -20 -29 -25
-61 -11 -73 18 -15 62 4 103 43 27 26 32 38 32 77 0 47 5 60 23 60 6 0 7 -21
3 -52z m241 -83 c-4 -8 -11 -15 -17 -15 -7 0 -7 6 0 21 13 23 26 19 17 -6z"/>
<path d="M1792 1710 c-18 -29 -15 -36 8 -15 20 18 26 35 12 35 -4 0 -13 -9
-20 -20z"/>
<path d="M2507 1771 c-3 -13 6 -29 27 -48 l31 -28 -25 28 c-14 16 -24 37 -22
48 4 25 -4 25 -11 0z"/>
<path d="M523 1763 c4 -3 1 -13 -6 -22 -11 -14 -10 -14 5 -2 16 12 16 31 1 31
-4 0 -3 -3 0 -7z"/>
<path d="M473 1551 c0 -11 5 -18 9 -15 4 3 5 11 1 19 -7 21 -12 19 -10 -4z"/>
<path d="M2540 1563 c0 -5 11 -21 25 -38 l25 -30 -21 38 c-20 36 -29 45 -29
30z"/>
<path d="M350 1536 c0 -4 11 -24 25 -44 26 -39 32 -67 15 -77 -6 -3 -17 -21
-26 -38 l-15 -32 25 29 c49 59 51 70 20 113 -37 51 -44 58 -44 49z"/>
<path d="M2650 1495 c-36 -52 -34 -61 16 -121 25 -28 25 -28 -2 23 l-28 51 28
42 c38 58 25 62 -14 5z"/>
<path d="M453 1508 c-15 -20 -25 -38 -20 -38 3 0 12 11 21 25 17 26 16 35 -1
13z"/>
<path d="M1826 1448 c-9 -12 -16 -35 -16 -50 0 -38 -20 -128 -29 -128 -10 0
-59 79 -71 116 -16 47 -63 57 -74 16 -14 -53 -39 -241 -33 -255 15 -40 67 -5
67 46 0 18 3 42 6 55 l7 23 23 -22 c13 -12 24 -28 24 -36 0 -7 4 -13 8 -13 4
0 16 -13 25 -30 32 -54 87 -35 87 29 0 19 5 61 12 93 11 52 14 57 33 52 11 -4
34 -6 52 -6 l32 1 -6 -77 c-5 -68 -3 -80 15 -102 19 -24 22 -24 38 -8 12 12
18 35 19 80 3 117 3 118 30 128 31 12 55 3 55 -20 0 -28 36 -66 79 -83 22 -9
42 -20 45 -25 5 -9 -23 -40 -31 -34 -1 1 -21 2 -43 2 -44 0 -61 -20 -43 -49
24 -38 110 -26 179 25 66 48 41 110 -55 137 -53 15 -60 36 -18 51 22 8 35 7
59 -7 23 -13 34 -15 44 -6 23 19 17 57 -12 76 -23 14 -35 15 -91 6 -36 -7 -76
-8 -92 -3 -16 4 -48 4 -72 -1 -24 -4 -77 -11 -116 -15 -60 -5 -73 -4 -73 8 0
14 -30 48 -43 48 -3 0 -13 -10 -21 -22z m39 -8 c3 -5 -4 -54 -15 -109 -11 -54
-20 -115 -20 -135 0 -76 -55 -27 -146 130 -9 16 -13 3 -24 -71 -13 -94 -23
-116 -40 -99 -7 7 -4 40 9 99 11 50 21 103 23 120 3 32 38 50 38 20 0 -21 35
-89 73 -143 37 -51 39 -49 57 83 6 50 14 96 16 103 4 14 20 16 29 2z m293 -40
c2 -13 -9 -16 -53 -16 -31 -1 -60 -5 -66 -11 -5 -5 -11 -54 -13 -108 -3 -75
-8 -100 -18 -100 -10 0 -12 22 -11 101 l3 101 -56 -5 c-45 -4 -56 -2 -52 9 3
9 28 17 69 21 36 4 83 12 104 17 54 13 89 9 93 -9z m173 10 c10 -6 19 -17 19
-25 0 -22 -22 -30 -32 -11 -13 24 -79 21 -112 -5 -36 -28 -20 -54 46 -74 54
-16 88 -39 88 -61 0 -20 -68 -73 -103 -79 -49 -10 -92 -3 -92 15 0 11 11 14
45 12 34 -3 54 3 79 20 19 13 34 28 34 33 -1 6 -25 18 -55 27 -51 17 -98 56
-98 82 0 16 38 52 70 65 33 13 87 13 111 1z"/>
<path d="M980 1440 c-8 -5 -49 -10 -91 -10 -49 0 -80 -4 -87 -12 -5 -7 -12
-35 -16 -63 -4 -27 -12 -80 -18 -117 -17 -105 -19 -104 167 -83 59 7 84 17 91
38 8 26 -22 51 -51 42 -11 -3 -46 -9 -77 -12 -54 -5 -57 -5 -51 16 4 17 13 21
52 22 25 1 51 1 57 0 6 -1 19 8 29 20 15 15 17 24 8 37 -8 14 -23 16 -72 14
-45 -2 -61 1 -61 11 0 8 14 14 38 15 62 3 116 14 130 25 7 5 14 8 15 6 6 -8
36 -75 62 -140 29 -74 58 -111 79 -103 13 5 108 140 135 191 15 30 14 68 -4
83 -21 18 -34 4 -79 -84 -22 -42 -45 -76 -52 -76 -6 0 -26 37 -44 83 -40 99
-53 116 -79 100 -11 -7 -23 -8 -32 -2 -18 11 -30 11 -49 -1z m48 -27 c-4 -20
-52 -32 -134 -32 -52 -1 -52 -1 -56 -36 l-4 -35 49 0 c26 0 57 5 68 10 15 9
21 7 25 -5 10 -24 -1 -29 -76 -33 l-68 -4 -10 -40 -11 -41 77 6 c42 3 88 9
101 13 19 6 22 4 19 -12 -3 -16 -18 -21 -95 -30 -51 -6 -99 -14 -108 -18 -24
-9 -29 17 -16 87 6 34 13 84 15 110 2 27 7 51 11 55 3 4 32 6 63 4 31 -1 71 2
87 7 48 15 67 13 63 -6z m98 -89 c24 -54 45 -103 47 -109 7 -14 29 18 78 110
23 44 44 82 46 85 10 12 20 -26 13 -46 -7 -17 -85 -142 -127 -203 -9 -13 -37
35 -77 134 -48 114 -54 139 -34 133 6 -2 31 -49 54 -104z"/>
<path d="M1525 1439 c-16 -5 -56 -8 -87 -8 -73 2 -89 -13 -94 -88 -2 -31 -7
-68 -10 -82 -24 -119 -19 -125 85 -116 135 12 188 35 164 73 -11 18 -14 18
-122 6 -59 -6 -64 -6 -58 10 4 10 7 20 7 22 0 2 24 4 54 4 66 0 103 24 91 59
-6 21 -10 22 -71 16 -55 -6 -64 -5 -64 9 0 12 10 16 48 16 84 0 123 11 134 36
8 17 8 27 -2 39 -14 17 -30 18 -75 4z m63 -26 c-4 -21 -40 -30 -125 -32 l-63
-1 0 -35 c0 -35 0 -35 44 -35 25 0 56 4 70 10 22 8 26 7 26 -9 0 -22 -26 -31
-97 -31 -29 0 -53 -4 -53 -9 0 -5 -3 -23 -7 -41 l-6 -33 74 6 c41 3 85 9 98
13 19 6 22 4 19 -12 -3 -16 -18 -21 -93 -31 -142 -18 -138 -18 -132 20 3 17
11 74 18 125 7 50 17 93 23 93 6 1 36 1 66 -1 30 -1 66 3 80 9 40 16 62 13 58
-6z"/>
<path d="M2555 1349 c-4 -6 -5 -12 -2 -15 2 -3 7 2 10 11 7 17 1 20 -8 4z"/>
<path d="M360 1305 c0 -5 12 -22 27 -37 l27 -29 -18 -50 c-24 -70 -15 -71 14
-3 l23 56 -37 36 c-20 20 -36 32 -36 27z"/>
<path d="M2633 1267 c-30 -31 -39 -46 -32 -57 5 -8 16 -32 25 -54 8 -21 17
-36 20 -33 3 3 -2 22 -10 42 -22 52 -20 65 16 102 17 18 29 35 27 38 -3 2 -24
-14 -46 -38z"/>
<path d="M446 1217 c3 -10 9 -15 12 -12 3 3 0 11 -7 18 -10 9 -11 8 -5 -6z"/>
<path d="M2536 1171 c-10 -11 -16 -29 -13 -43 l4 -23 2 24 c0 14 8 33 18 43 9
10 14 18 11 18 -3 0 -13 -9 -22 -19z"/>
<path d="M511 1144 c0 -11 3 -14 6 -6 3 7 2 16 -1 19 -3 4 -6 -2 -5 -13z"/>
<path d="M396 1087 c2 -6 23 -23 45 -35 40 -23 41 -26 36 -64 -6 -46 7 -39 16
8 6 30 2 34 -48 68 -30 20 -52 30 -49 23z"/>
<path d="M2582 1059 c-40 -29 -42 -32 -36 -67 14 -73 23 -87 17 -27 l-5 61 41
27 c39 26 50 38 34 37 -5 -1 -27 -15 -51 -31z"/>
<path d="M567 973 c17 -16 33 -39 36 -53 4 -22 4 -22 5 5 1 24 -6 34 -36 53
l-37 22 32 -27z"/>
<path d="M2463 978 c-18 -13 -33 -27 -33 -32 0 -5 12 1 28 15 15 13 31 27 37
31 20 17 -2 7 -32 -14z"/>
<path d="M490 914 c0 -3 24 -16 54 -29 51 -23 54 -26 52 -57 -1 -18 1 -44 5
-58 5 -16 7 -3 6 38 l-2 64 -57 23 c-32 13 -58 21 -58 19z"/>
<path d="M2483 857 c-51 -21 -53 -24 -53 -59 0 -46 15 -51 18 -7 3 42 4 43 52
59 23 7 43 17 46 22 8 12 -6 9 -63 -15z"/>
<path d="M660 840 c8 -5 20 -10 25 -10 6 0 3 5 -5 10 -8 5 -19 10 -25 10 -5 0
-3 -5 5 -10z"/>
<path d="M706 815 c4 -8 8 -15 10 -15 2 0 4 7 4 15 0 8 -4 15 -10 15 -5 0 -7
-7 -4 -15z"/>
<path d="M2310 775 c0 -8 2 -15 4 -15 2 0 6 7 10 15 3 8 1 15 -4 15 -6 0 -10
-7 -10 -15z"/>
<path d="M635 721 c4 -3 25 -11 47 -16 48 -12 53 -20 69 -100 7 -33 13 -55 15
-50 2 6 -2 41 -9 80 l-13 69 -57 12 c-32 6 -55 9 -52 5z"/>
<path d="M2349 717 l-55 -10 -12 -69 c-17 -97 -13 -107 7 -18 l17 75 42 7 c23
4 50 12 59 17 20 12 18 12 -58 -2z"/>
<path d="M837 670 c10 -11 19 -20 21 -20 1 0 -2 9 -8 20 -6 11 -15 20 -20 20
-6 0 -2 -9 7 -20z"/>
<path d="M2208 683 c7 -3 16 -2 19 1 4 3 -2 6 -13 5 -11 0 -14 -3 -6 -6z"/>
<path d="M2157 638 c-9 -23 -15 -43 -13 -45 2 -2 11 15 20 38 9 23 15 43 13
45 -2 2 -11 -15 -20 -38z"/>
<path d="M870 601 c0 -6 4 -13 10 -16 6 -3 7 1 4 9 -7 18 -14 21 -14 7z"/>
<path d="M849 521 c48 -5 55 -9 72 -41 22 -43 24 -35 4 14 -15 36 -16 36 -73
34 l-57 -1 54 -6z"/>
<path d="M1011 527 c2 -1 12 -9 22 -16 15 -12 17 -12 11 3 -3 9 -13 16 -22 16
-8 0 -13 -1 -11 -3z"/>
<path d="M1991 508 c-13 -22 -13 -22 5 -7 10 9 26 19 34 22 11 4 9 6 -5 6 -11
1 -26 -9 -34 -21z"/>
<path d="M2110 526 c0 -2 -7 -21 -16 -42 -17 -41 -1 -35 20 8 10 19 20 23 65
25 78 4 76 13 -2 13 -37 0 -67 -2 -67 -4z"/>
<path d="M1160 481 c-23 -7 -22 -8 12 -12 29 -4 35 -2 26 8 -6 7 -11 13 -12
12 0 -1 -12 -4 -26 -8z"/>
<path d="M1817 452 c-15 -15 -27 -32 -27 -36 0 -4 11 6 25 23 14 16 38 32 53
34 l27 4 -26 2 c-16 0 -35 -9 -52 -27z"/>
<path d="M1918 463 c7 -3 16 -2 19 1 4 3 -2 6 -13 5 -11 0 -14 -3 -6 -6z"/>
<path d="M1012 450 c-18 -4 -36 -10 -39 -14 -8 -8 4 -7 49 3 30 7 42 5 58 -9
11 -9 20 -21 20 -25 0 -13 51 -77 57 -71 3 2 -14 32 -36 65 -43 63 -49 65
-109 51z"/>
<path d="M1927 413 c-35 -57 -28 -69 9 -14 24 38 30 41 73 42 42 1 43 2 16 9
-59 15 -69 11 -98 -37z"/>
<path d="M1624 413 l-29 -25 31 21 c23 15 34 17 42 9 8 -8 12 -9 12 -1 0 22
-28 20 -56 -4z"/>
<path d="M1255 410 c10 -11 20 -20 23 -20 3 0 -3 9 -13 20 -10 11 -20 20 -23
20 -3 0 3 -9 13 -20z"/>
<path d="M1700 410 c8 -5 20 -10 25 -10 6 0 3 5 -5 10 -8 5 -19 10 -25 10 -5
0 -3 -5 5 -10z"/>
<path d="M1390 399 c-12 -8 -10 -9 9 -4 15 5 27 2 33 -6 8 -11 9 -11 5 1 -5
19 -27 23 -47 9z"/>
<path d="M1450 386 c0 -3 9 -10 20 -16 11 -6 20 -8 20 -6 0 3 -9 10 -20 16
-11 6 -20 8 -20 6z"/>
<path d="M1700 335 c-30 -30 -50 -55 -44 -55 5 0 30 20 54 45 48 49 65 53 111
29 17 -8 33 -13 36 -10 5 5 -80 46 -96 46 -4 0 -31 -25 -61 -55z"/>
<path d="M1245 344 c-57 -27 -49 -32 16 -9 l43 15 36 -35 c53 -51 62 -43 10
10 -24 25 -47 45 -50 44 -3 0 -27 -11 -55 -25z"/>
<path d="M1473 317 c-52 -38 -49 -47 5 -16 l40 23 51 -27 c28 -16 51 -26 51
-24 0 5 -98 78 -103 76 -1 0 -21 -15 -44 -32z"/>
</g>
</svg>
